<svg xmlns="http://www.w3.org/2000/svg" viewBox="0 0 512 512">
  <defs>
    <linearGradient id="goldGrad" x1="0%" y1="0%" x2="100%" y2="100%">
      <stop offset="0%" stop-color="#F5E0A0" />
      <stop offset="30%" stop-color="#D4AF37" />
      <stop offset="70%" stop-color="#AA8015" />
      <stop offset="100%" stop-color="#6A4E00" />
    </linearGradient>
    <filter id="shadow" x="-20%" y="-20%" width="140%" height="140%">
      <feDropShadow dx="0" dy="8" stdDeviation="12" flood-color="#000" flood-opacity="0.6"/>
    </filter>
  </defs>
  
  <rect width="512" height="512" rx="112" fill="#040d1f" />
  
  <g transform="translate(256, 256) scale(1.4) rotate(45)" filter="url(#shadow)">
    <path d="M 0 -80 L 60 -80 A 20 20 0 0 1 80 -60 L 80 0 A 20 20 0 0 1 60 20 L 0 20 A 20 20 0 0 1 -20 0 L -20 -60 A 20 20 0 0 1 0 -80 Z" fill="none" stroke="url(#goldGrad)" stroke-width="32" stroke-linejoin="round" />
    <path d="M 0 80 L -60 80 A 20 20 0 0 1 -80 60 L -80 0 A 20 20 0 0 1 -60 -20 L 0 -20 A 20 20 0 0 1 20 0 L 20 60 A 20 20 0 0 1 0 80 Z" fill="none" stroke="url(#goldGrad)" stroke-width="32" stroke-linejoin="round" />
    <path d="M 20 0 L 20 60 A 20 20 0 0 1 0 80" fill="none" stroke="url(#goldGrad)" stroke-width="32" stroke-linecap="round" stroke-linejoin="round" />
    <path d="M -20 0 L -20 -60 A 20 20 0 0 1 0 -80" fill="none" stroke="url(#goldGrad)" stroke-width="32" stroke-linecap="round" stroke-linejoin="round" />
  </g>
</svg>
